<mxfile host="app.diagrams.net" modified="2022-05-20T15:56:14.405Z" agent="5.0 (Windows NT 10.0; Win64; x64) AppleWebKit/537.36 (KHTML, like Gecko) Chrome/101.0.4951.67 Safari/537.36" etag="7DyfhVgmXodilG7WqOg_" version="18.0.8" type="github">
  <diagram name="Page-1" id="1622d65d-c77d-c4b6-e0e7-3c11208c8684">
    <mxGraphModel dx="1520" dy="2073" grid="1" gridSize="10" guides="1" tooltips="1" connect="1" arrows="1" fold="1" page="1" pageScale="1.5" pageWidth="1169" pageHeight="826" background="none" math="0" shadow="0">
      <root>
        <mxCell id="0" style=";html=1;" />
        <mxCell id="1" style=";html=1;" parent="0" />
        <mxCell id="869962fe87da545-3" value="" style="whiteSpace=wrap;html=1;rounded=0;shadow=0;dashed=0;strokeWidth=1;fontFamily=Tahoma;fontSize=10;fontColor=#FFFFFF;strokeColor=none;fillColor=#7FB61A;gradientColor=#1B622A;gradientDirection=west;" parent="1" vertex="1">
          <mxGeometry x="1360" y="210" width="240" height="180" as="geometry" />
        </mxCell>
        <mxCell id="869962fe87da545-4" value="" style="verticalLabelPosition=bottom;verticalAlign=top;html=1;strokeWidth=1;shape=mxgraph.basic.orthogonal_triangle;rounded=0;shadow=0;dashed=0;fontFamily=Tahoma;fontSize=10;fontColor=#FFFFFF;flipV=1;fillColor=#000000;strokeColor=none;opacity=50;" parent="1" vertex="1">
          <mxGeometry x="1360" y="350" width="140" height="40" as="geometry" />
        </mxCell>
        <mxCell id="869962fe87da545-6" value="" style="whiteSpace=wrap;html=1;rounded=0;shadow=0;dashed=0;strokeWidth=1;fontFamily=Tahoma;fontSize=10;fontColor=#FFFFFF;strokeColor=none;fillColor=#5398DB;gradientColor=#1247B9;gradientDirection=west;" parent="1" vertex="1">
          <mxGeometry x="1370" y="470" width="240" height="180" as="geometry" />
        </mxCell>
        <mxCell id="869962fe87da545-7" value="" style="verticalLabelPosition=bottom;verticalAlign=top;html=1;strokeWidth=1;shape=mxgraph.basic.orthogonal_triangle;rounded=0;shadow=0;dashed=0;fontFamily=Tahoma;fontSize=10;fontColor=#FFFFFF;flipV=1;fillColor=#000000;strokeColor=none;opacity=50;" parent="1" vertex="1">
          <mxGeometry x="1370" y="610" width="140" height="40" as="geometry" />
        </mxCell>
        <mxCell id="869962fe87da545-9" value="" style="whiteSpace=wrap;html=1;rounded=0;shadow=0;dashed=0;strokeWidth=1;fontFamily=Tahoma;fontSize=10;fontColor=#FFFFFF;strokeColor=none;fillColor=#8D029D;gradientColor=#65009E;gradientDirection=west;" parent="1" vertex="1">
          <mxGeometry x="1370" y="720" width="240" height="180" as="geometry" />
        </mxCell>
        <mxCell id="869962fe87da545-10" value="" style="verticalLabelPosition=bottom;verticalAlign=top;html=1;strokeWidth=1;shape=mxgraph.basic.orthogonal_triangle;rounded=0;shadow=0;dashed=0;fontFamily=Tahoma;fontSize=10;fontColor=#FFFFFF;flipV=1;fillColor=#000000;strokeColor=none;opacity=50;" parent="1" vertex="1">
          <mxGeometry x="1370" y="860" width="140" height="40" as="geometry" />
        </mxCell>
        <mxCell id="869962fe87da545-12" value="" style="whiteSpace=wrap;html=1;rounded=0;shadow=0;dashed=0;strokeWidth=1;fontFamily=Tahoma;fontSize=10;fontColor=#FFFFFF;strokeColor=none;fillColor=#F19001;gradientColor=#C23603;gradientDirection=west;" parent="1" vertex="1">
          <mxGeometry x="1370" y="970" width="240" height="180" as="geometry" />
        </mxCell>
        <mxCell id="869962fe87da545-13" value="" style="verticalLabelPosition=bottom;verticalAlign=top;html=1;strokeWidth=1;shape=mxgraph.basic.orthogonal_triangle;rounded=0;shadow=0;dashed=0;fontFamily=Tahoma;fontSize=10;fontColor=#FFFFFF;flipV=1;fillColor=#000000;strokeColor=none;opacity=50;" parent="1" vertex="1">
          <mxGeometry x="1370" y="1110" width="140" height="40" as="geometry" />
        </mxCell>
        <mxCell id="869962fe87da545-15" value="" style="whiteSpace=wrap;html=1;rounded=0;shadow=0;dashed=0;strokeWidth=1;fontFamily=Tahoma;fontSize=10;fontColor=#FFFFFF;strokeColor=none;fillColor=#EA0001;gradientColor=#AD0002;gradientDirection=west;" parent="1" vertex="1">
          <mxGeometry x="1370" y="1220" width="240" height="180" as="geometry" />
        </mxCell>
        <mxCell id="869962fe87da545-16" value="" style="verticalLabelPosition=bottom;verticalAlign=top;html=1;strokeWidth=1;shape=mxgraph.basic.orthogonal_triangle;rounded=0;shadow=0;dashed=0;fontFamily=Tahoma;fontSize=10;fontColor=#FFFFFF;flipV=1;fillColor=#000000;strokeColor=none;opacity=50;" parent="1" vertex="1">
          <mxGeometry x="1370" y="1360" width="140" height="40" as="geometry" />
        </mxCell>
        <mxCell id="869962fe87da545-5" value="&lt;b&gt;EFH Case Workflow&lt;/b&gt;" style="whiteSpace=wrap;html=1;rounded=0;shadow=0;dashed=0;strokeWidth=1;fillColor=#E6E6E6;fontFamily=Verdana;fontSize=70;strokeColor=none;verticalAlign=top;spacingTop=10;" parent="1" vertex="1">
          <mxGeometry x="60" y="30" width="1360" height="1410" as="geometry" />
        </mxCell>
        <mxCell id="869962fe87da545-2" value="" style="html=1;shadow=0;dashed=0;align=center;verticalAlign=middle;shape=mxgraph.arrows2.arrow;dy=0;dx=0;notch=30;rounded=0;strokeColor=none;strokeWidth=1;fillColor=#7FB61A;fontFamily=Tahoma;fontSize=10;fontColor=#FFFFFF;gradientColor=#1B622A;gradientDirection=east;" parent="1" vertex="1">
          <mxGeometry x="290" y="170" width="1210" height="200" as="geometry" />
        </mxCell>
        <mxCell id="869962fe87da545-8" value="" style="html=1;shadow=0;dashed=0;align=center;verticalAlign=middle;shape=mxgraph.arrows2.arrow;dy=0;dx=0;notch=30;rounded=0;strokeColor=none;strokeWidth=1;fillColor=#5398DB;fontFamily=Tahoma;fontSize=10;fontColor=#FFFFFF;gradientColor=#1247B9;gradientDirection=east;" parent="1" vertex="1">
          <mxGeometry x="300" y="430" width="1210" height="190" as="geometry" />
        </mxCell>
        <mxCell id="869962fe87da545-11" value="" style="html=1;shadow=0;dashed=0;align=center;verticalAlign=middle;shape=mxgraph.arrows2.arrow;dy=0;dx=0;notch=30;rounded=0;strokeColor=none;strokeWidth=1;fillColor=#8D029D;fontFamily=Tahoma;fontSize=10;fontColor=#FFFFFF;gradientColor=#65009E;gradientDirection=east;" parent="1" vertex="1">
          <mxGeometry x="300" y="680" width="1210" height="200" as="geometry" />
        </mxCell>
        <mxCell id="869962fe87da545-14" value="" style="html=1;shadow=0;dashed=0;align=center;verticalAlign=middle;shape=mxgraph.arrows2.arrow;dy=0;dx=0;notch=30;rounded=0;strokeColor=none;strokeWidth=1;fillColor=#F19001;fontFamily=Tahoma;fontSize=10;fontColor=#FFFFFF;gradientColor=#C23603;gradientDirection=east;" parent="1" vertex="1">
          <mxGeometry x="300" y="930" width="1210" height="200" as="geometry" />
        </mxCell>
        <mxCell id="869962fe87da545-17" value="" style="html=1;shadow=0;dashed=0;align=center;verticalAlign=middle;shape=mxgraph.arrows2.arrow;dy=0;dx=0;notch=30;rounded=0;strokeColor=none;strokeWidth=1;fillColor=#EA0001;fontFamily=Tahoma;fontSize=10;fontColor=#FFFFFF;gradientColor=#AD0002;gradientDirection=east;" parent="1" vertex="1">
          <mxGeometry x="300" y="1180" width="1210" height="210" as="geometry" />
        </mxCell>
        <mxCell id="869962fe87da545-18" value="&lt;div style=&quot;font-size: 20px;&quot;&gt;&lt;font style=&quot;font-size: 20px;&quot;&gt;&lt;i style=&quot;&quot;&gt;&lt;b&gt;COMPLEMENT THE HOMEOWNER’S ATTITUDE:&amp;nbsp;&lt;/b&gt;&lt;/i&gt;&lt;/font&gt;&lt;/div&gt;&lt;div style=&quot;font-size: 20px;&quot;&gt;&lt;font style=&quot;font-size: 20px;&quot;&gt;&lt;i&gt;&lt;b&gt;&lt;br&gt;&lt;/b&gt;&lt;/i&gt;&lt;/font&gt;&lt;/div&gt;&lt;div style=&quot;font-size: 20px;&quot;&gt;&lt;font style=&quot;font-size: 20px;&quot;&gt;&lt;i&gt;&lt;b&gt;If they’re friendly and casual, be friendly and casual, too.&amp;nbsp;&lt;/b&gt;&lt;/i&gt;&lt;/font&gt;&lt;/div&gt;&lt;div style=&quot;font-size: 20px;&quot;&gt;&lt;font style=&quot;font-size: 20px;&quot;&gt;&lt;i&gt;&lt;b&gt;If they’re angry and/or difficult, be apologetic and deferential.&amp;nbsp;&lt;/b&gt;&lt;/i&gt;&lt;/font&gt;&lt;/div&gt;&lt;div style=&quot;font-size: 20px;&quot;&gt;&lt;i style=&quot;background-color: initial;&quot;&gt;&lt;b&gt;If they&#39;re confused and/or scared, be calm and instructive.&lt;/b&gt;&lt;/i&gt;&lt;br&gt;&lt;/div&gt;" style="text;html=1;strokeColor=none;fillColor=none;align=center;verticalAlign=middle;whiteSpace=wrap;rounded=0;shadow=0;dashed=0;fontFamily=Verdana;fontSize=70;horizontal=0;" parent="1" vertex="1">
          <mxGeometry x="80" y="80" width="190" height="1270" as="geometry" />
        </mxCell>
        <mxCell id="869962fe87da545-19" value="1" style="text;html=1;strokeColor=none;fillColor=none;align=right;verticalAlign=middle;whiteSpace=wrap;rounded=0;shadow=0;dashed=0;fontFamily=Helvetica;fontSize=150;fontColor=#FFFFFF;" parent="1" vertex="1">
          <mxGeometry x="320" y="170" width="200" height="180" as="geometry" />
        </mxCell>
        <mxCell id="869962fe87da545-20" value="2" style="text;html=1;strokeColor=none;fillColor=none;align=right;verticalAlign=middle;whiteSpace=wrap;rounded=0;shadow=0;dashed=0;fontFamily=Helvetica;fontSize=150;fontColor=#FFFFFF;" parent="1" vertex="1">
          <mxGeometry x="330" y="430" width="200" height="180" as="geometry" />
        </mxCell>
        <mxCell id="869962fe87da545-21" value="3" style="text;html=1;strokeColor=none;fillColor=none;align=right;verticalAlign=middle;whiteSpace=wrap;rounded=0;shadow=0;dashed=0;fontFamily=Helvetica;fontSize=150;fontColor=#FFFFFF;" parent="1" vertex="1">
          <mxGeometry x="330" y="680" width="200" height="180" as="geometry" />
        </mxCell>
        <mxCell id="869962fe87da545-22" value="4" style="text;html=1;strokeColor=none;fillColor=none;align=right;verticalAlign=middle;whiteSpace=wrap;rounded=0;shadow=0;dashed=0;fontFamily=Helvetica;fontSize=150;fontColor=#FFFFFF;" parent="1" vertex="1">
          <mxGeometry x="330" y="930" width="200" height="180" as="geometry" />
        </mxCell>
        <mxCell id="869962fe87da545-23" value="5" style="text;html=1;strokeColor=none;fillColor=none;align=right;verticalAlign=middle;whiteSpace=wrap;rounded=0;shadow=0;dashed=0;fontFamily=Helvetica;fontSize=150;fontColor=#FFFFFF;" parent="1" vertex="1">
          <mxGeometry x="330" y="1180" width="200" height="180" as="geometry" />
        </mxCell>
        <mxCell id="869962fe87da545-24" value="" style="line;strokeWidth=4;direction=south;html=1;rounded=0;shadow=0;dashed=0;fillColor=none;gradientColor=#AD0002;fontFamily=Helvetica;fontSize=150;fontColor=#FFFFFF;align=right;strokeColor=#FFFFFF;" parent="1" vertex="1">
          <mxGeometry x="540" y="180" width="10" height="160" as="geometry" />
        </mxCell>
        <mxCell id="869962fe87da545-25" value="" style="line;strokeWidth=4;direction=south;html=1;rounded=0;shadow=0;dashed=0;fillColor=none;gradientColor=#AD0002;fontFamily=Helvetica;fontSize=150;fontColor=#FFFFFF;align=right;strokeColor=#FFFFFF;" parent="1" vertex="1">
          <mxGeometry x="540" y="440" width="10" height="160" as="geometry" />
        </mxCell>
        <mxCell id="869962fe87da545-26" value="" style="line;strokeWidth=4;direction=south;html=1;rounded=0;shadow=0;dashed=0;fillColor=none;gradientColor=#AD0002;fontFamily=Helvetica;fontSize=150;fontColor=#FFFFFF;align=right;strokeColor=#FFFFFF;" parent="1" vertex="1">
          <mxGeometry x="540" y="690" width="10" height="160" as="geometry" />
        </mxCell>
        <mxCell id="869962fe87da545-27" value="" style="line;strokeWidth=4;direction=south;html=1;rounded=0;shadow=0;dashed=0;fillColor=none;gradientColor=#AD0002;fontFamily=Helvetica;fontSize=150;fontColor=#FFFFFF;align=right;strokeColor=#FFFFFF;" parent="1" vertex="1">
          <mxGeometry x="540" y="940" width="10" height="160" as="geometry" />
        </mxCell>
        <mxCell id="869962fe87da545-28" value="" style="line;strokeWidth=4;direction=south;html=1;rounded=0;shadow=0;dashed=0;fillColor=none;gradientColor=#AD0002;fontFamily=Helvetica;fontSize=150;fontColor=#FFFFFF;align=right;strokeColor=#FFFFFF;" parent="1" vertex="1">
          <mxGeometry x="540" y="1190" width="10" height="160" as="geometry" />
        </mxCell>
        <mxCell id="869962fe87da545-29" value="&lt;h1&gt;Data Analysis&lt;/h1&gt;&lt;p&gt;&lt;span style=&quot;background-color: initial;&quot;&gt;Make sure you understand the signal’s appearance and patterns.&amp;nbsp;&lt;/span&gt;&lt;/p&gt;&lt;p&gt;&lt;span style=&quot;background-color: initial;&quot;&gt;Generate a hypothesis.&amp;nbsp;&amp;nbsp;&lt;/span&gt;&lt;/p&gt;&lt;p&gt;&lt;span style=&quot;background-color: initial;&quot;&gt;Plan out troubleshooting process.&amp;nbsp;&lt;/span&gt;&lt;br&gt;&lt;/p&gt;" style="text;html=1;strokeColor=none;fillColor=none;spacing=5;spacingTop=-20;whiteSpace=wrap;overflow=hidden;rounded=0;shadow=0;dashed=0;fontFamily=Helvetica;fontSize=12;fontColor=#FFFFFF;align=left;" parent="1" vertex="1">
          <mxGeometry x="580" y="190" width="670" height="140" as="geometry" />
        </mxCell>
        <mxCell id="869962fe87da545-30" value="&lt;h1&gt;Homeowner Escalation&lt;/h1&gt;&lt;p&gt;Post new status.&amp;nbsp;&lt;/p&gt;&lt;p&gt;Raise to level 90s if the signals are serious and actionable. Raise to 80s if signals are less serious. Raise to 70s if signals are uncertain and we want to learn more.&lt;/p&gt;" style="text;html=1;strokeColor=none;fillColor=none;spacing=5;spacingTop=-20;whiteSpace=wrap;overflow=hidden;rounded=0;shadow=0;dashed=0;fontFamily=Helvetica;fontSize=12;fontColor=#FFFFFF;align=left;" parent="1" vertex="1">
          <mxGeometry x="580" y="450" width="670" height="140" as="geometry" />
        </mxCell>
        <mxCell id="869962fe87da545-31" value="&lt;h1&gt;Initial Outreach&lt;/h1&gt;&lt;p&gt;Call the homeowner right after escalation or later that same day.&lt;/p&gt;&lt;p&gt;&lt;span style=&quot;background-color: initial;&quot;&gt;“Hello this is [YOUR NAME] with Ting, the electrical sensor you have in your home.”&amp;nbsp;&lt;/span&gt;&lt;/p&gt;&lt;p&gt;&lt;span style=&quot;background-color: initial;&quot;&gt;In the call or voicemail, give as much information about the signals as possible.&amp;nbsp;&lt;/span&gt;&lt;span style=&quot;background-color: initial;&quot;&gt;Even if we need to leave a longer message, that means the troubleshooting shouldn’t take as long. More information makes&lt;/span&gt;&lt;span style=&quot;background-color: initial;&quot;&gt;&amp;nbsp;the homeowner more inclined to act.&amp;nbsp;&lt;/span&gt;&lt;/p&gt;" style="text;html=1;strokeColor=none;fillColor=none;spacing=5;spacingTop=-20;whiteSpace=wrap;overflow=hidden;rounded=0;shadow=0;dashed=0;fontFamily=Helvetica;fontSize=12;fontColor=#FFFFFF;align=left;" parent="1" vertex="1">
          <mxGeometry x="580" y="700" width="670" height="140" as="geometry" />
        </mxCell>
        <mxCell id="869962fe87da545-32" value="&lt;h1&gt;Troubleshooting&lt;/h1&gt;&lt;p&gt;&lt;span style=&quot;background-color: initial;&quot;&gt;Start by re-iterating information about signals. Ask the homeowner questions, and l&lt;/span&gt;&lt;span style=&quot;background-color: initial;&quot;&gt;et the homeowner say what they need to say. This helps them feel heard and part of the process.&amp;nbsp;&lt;/span&gt;&lt;span style=&quot;background-color: initial;&quot;&gt;If they suggest something and it’s easy to test, then test it!&amp;nbsp;&lt;/span&gt;&lt;br&gt;&lt;/p&gt;&lt;p&gt;Follow troubleshooting procedures.&amp;nbsp;&lt;/p&gt;&lt;p&gt;&lt;span style=&quot;background-color: initial;&quot;&gt;In conclusion, thank the homeowner for their time and patience.&amp;nbsp;&lt;/span&gt;&lt;span style=&quot;background-color: initial;&quot;&gt;You can summarize the troubleshooting you’ve done, what you’ve found, and what the next steps are.&amp;nbsp;&lt;/span&gt;&lt;span style=&quot;background-color: initial;&quot;&gt;&amp;nbsp;Let them know the plan and when you&#39;ll next reach out.&amp;nbsp;&amp;nbsp;&lt;/span&gt;&lt;/p&gt;&lt;p&gt;Make sure to check in on each homeowner&#39;s data at least once a day and reach out every other day as a general rule.&lt;/p&gt;" style="text;html=1;strokeColor=none;fillColor=none;spacing=5;spacingTop=-20;whiteSpace=wrap;overflow=hidden;rounded=0;shadow=0;dashed=0;fontFamily=Helvetica;fontSize=12;fontColor=#FFFFFF;align=left;" parent="1" vertex="1">
          <mxGeometry x="580" y="940" width="680" height="180" as="geometry" />
        </mxCell>
        <mxCell id="869962fe87da545-33" value="&lt;h1&gt;Conclusion &amp;amp; Resolution&lt;/h1&gt;&lt;p&gt;For dormant signals: Wait two weeks before demoting.&amp;nbsp;&lt;span style=&quot;background-color: initial;&quot;&gt;At the one-week mark, give homeowner an update. After demoting, leave at level 21 and make a comment on the EFH dashboard.&amp;nbsp;&lt;/span&gt;&lt;/p&gt;&lt;p&gt;&lt;span style=&quot;background-color: initial;&quot;&gt;For confident saves: Wait two-four days before marking as resolved.&lt;/span&gt;&lt;br&gt;&lt;/p&gt;&lt;p&gt;For semi-confident saves: W&lt;span style=&quot;background-color: initial;&quot;&gt;ait seven days&amp;nbsp; and then cycle through &quot;Hazard Resolved&quot; and set to level 20.&amp;nbsp;&lt;/span&gt;&lt;/p&gt;&lt;p&gt;For ALL cases:&amp;nbsp;&lt;span style=&quot;background-color: initial;&quot;&gt;Let the homeowner know you will be taking a few days to review the solved case to make sure there are no further issues. Otherwise, they may be worried why their Ting status is not back to normal right away.&lt;/span&gt;&lt;/p&gt;" style="text;html=1;strokeColor=none;fillColor=none;spacing=5;spacingTop=-20;whiteSpace=wrap;overflow=hidden;rounded=0;shadow=0;dashed=0;fontFamily=Helvetica;fontSize=12;fontColor=#FFFFFF;align=left;" parent="1" vertex="1">
          <mxGeometry x="580" y="1190" width="670" height="190" as="geometry" />
        </mxCell>
        <mxCell id="869962fe87da545-36" value="" style="shadow=0;dashed=0;html=1;strokeColor=none;fillColor=#FFFFFF;labelPosition=center;verticalLabelPosition=bottom;verticalAlign=top;shape=mxgraph.office.concepts.best_practices;rounded=0;fontFamily=Helvetica;fontSize=12;fontColor=#FFFFFF;align=left;" parent="1" vertex="1">
          <mxGeometry x="1370" y="1221.5" width="97" height="97" as="geometry" />
        </mxCell>
        <mxCell id="869962fe87da545-37" value="" style="shadow=0;dashed=0;html=1;strokeColor=none;fillColor=#FFFFFF;labelPosition=center;verticalLabelPosition=bottom;verticalAlign=top;shape=mxgraph.office.concepts.maintenance;rounded=0;fontFamily=Helvetica;fontSize=12;fontColor=#FFFFFF;align=left;" parent="1" vertex="1">
          <mxGeometry x="1370" y="980" width="70" height="100" as="geometry" />
        </mxCell>
        <mxCell id="RXyFUOmLm96pz-A_L3zu-4" value="" style="shape=mxgraph.signs.travel.upstairs;html=1;pointerEvents=1;fillColor=#FCFCFC;strokeColor=none;verticalLabelPosition=bottom;verticalAlign=top;align=center;sketch=0;" vertex="1" parent="1">
          <mxGeometry x="1368.5" y="477.5" width="98" height="85" as="geometry" />
        </mxCell>
        <mxCell id="RXyFUOmLm96pz-A_L3zu-7" value="" style="shape=mxgraph.signs.science.microscope;html=1;pointerEvents=1;fillColor=#F7F7F7;strokeColor=none;verticalLabelPosition=bottom;verticalAlign=top;align=center;sketch=0;" vertex="1" parent="1">
          <mxGeometry x="1373" y="210.5" width="64" height="99" as="geometry" />
        </mxCell>
        <mxCell id="RXyFUOmLm96pz-A_L3zu-8" value="" style="shape=mxgraph.signs.people.man_1;html=1;pointerEvents=1;fillColor=#FFFFFF;strokeColor=none;verticalLabelPosition=bottom;verticalAlign=top;align=center;sketch=0;" vertex="1" parent="1">
          <mxGeometry x="1396.25" y="711" width="44.5" height="118" as="geometry" />
        </mxCell>
        <mxCell id="RXyFUOmLm96pz-A_L3zu-13" value="V" style="text;html=1;align=center;verticalAlign=middle;resizable=0;points=[];autosize=1;" vertex="1" parent="1">
          <mxGeometry x="21" y="382" width="20" height="20" as="geometry" />
        </mxCell>
      </root>
    </mxGraphModel>
  </diagram>
</mxfile>
